<svg width="281" height="77" viewBox="0 0 281 77" fill="none" xmlns="http://www.w3.org/2000/svg">
<g clip-path="url(#clip0_60_90)">
<path d="M189.506 15.2214C186.513 12.7319 182.787 11.2941 178.9 11.1287L177.621 11.0005V0H179.156C185.897 0.0818942 192.435 2.32317 197.811 6.39531C203.68 11.0754 207.782 17.6171 209.44 24.9425C209.374 25.3393 209.194 25.7081 208.921 26.0035C208.649 26.2989 208.295 26.5078 207.905 26.6044L200.878 28.3945C199.98 28.6334 199.025 28.5134 198.214 28.0597C197.403 27.606 196.8 26.8544 196.533 25.9638C195.193 21.818 192.766 18.1081 189.506 15.2214Z" fill="#A11E29"/>
<path d="M229.374 76.8794H234.869V9.75136e-07H229.374C228.417 -0.00049438 227.47 0.18774 226.586 0.553939C225.702 0.920139 224.899 1.45712 224.223 2.13419C223.546 2.81126 223.01 3.61514 222.644 4.49987C222.278 5.3846 222.09 6.33283 222.09 7.29035V69.7078C222.091 70.6593 222.281 71.6013 222.649 72.4787C223.017 73.3562 223.555 74.1517 224.233 74.819C224.911 75.4864 225.714 76.0122 226.597 76.3659C227.479 76.7196 228.423 76.8941 229.374 76.8794Z" fill="#A11E29"/>
<path d="M7.28347 76.8794H12.7785V9.75136e-07H7.28347C6.32685 -0.00049438 5.37952 0.18774 4.49562 0.553939C3.61173 0.920139 2.80861 1.45712 2.13218 2.13419C1.45575 2.81126 0.91927 3.61514 0.553416 4.49987C0.187563 5.3846 -0.000493914 6.33283 9.74215e-07 7.29035V69.7078C0.000885061 70.6593 0.190758 71.6013 0.558576 72.4787C0.926394 73.3562 1.46482 74.1517 2.14255 74.819C2.82027 75.4864 3.62378 76.0122 4.50634 76.3659C5.3889 76.7196 6.3329 76.8941 7.28347 76.8794Z" fill="#A11E29"/>
<path d="M56.9933 12.1518C55.5811 9.07172 53.376 6.42296 50.6041 4.47701C47.6688 2.55853 44.3562 1.29328 40.8903 0.766823C37.0868 0.173306 33.2385 -0.0833241 29.3899 -8.57217e-05H16.3573V11.6392H30.1599C33.0711 11.5333 35.9851 11.7475 38.8496 12.278C41.0355 12.8815 42.9371 14.2407 44.2167 16.1144C45.6495 18.2191 46.3664 20.7301 46.2611 23.2748C46.3663 24.9091 46.1118 26.5465 45.5155 28.0716C44.9193 29.5966 43.9959 30.9721 42.8104 32.1008C40.382 34.1472 36.2931 35.3041 30.2879 35.3041H16.2292V46.8153H30.03C40.8921 46.8153 48.5597 44.5127 52.7765 39.7812C57.0118 35.1437 59.2999 29.0515 59.1658 22.7698C59.3755 19.1022 58.6268 15.4414 56.9933 12.1518Z" fill="#A11E29"/>
<path d="M124.719 31.3376H88.4276V42.977H117.435C118.392 42.9775 119.339 42.7892 120.223 42.423C121.107 42.0568 121.91 41.5198 122.587 40.8428C123.263 40.1657 123.8 39.3618 124.165 38.4771C124.531 37.5924 124.719 36.6441 124.719 35.6866V31.3376Z" fill="#A11E29"/>
<path d="M121.14 -0.000115313H88.4276V11.6392H128.424V7.16022C128.421 6.2096 128.23 5.26891 127.862 4.39275C127.493 3.51659 126.955 2.72241 126.277 2.05629C125.599 1.39017 124.796 0.865379 123.915 0.51237C123.033 0.15936 122.09 -0.0148393 121.14 -0.000115313Z" fill="#A11E29"/>
<path d="M88.4276 76.8717H121.14C122.097 76.8722 123.044 76.684 123.928 76.3178C124.812 75.9516 125.615 75.4146 126.291 74.7375C126.968 74.0605 127.504 73.2566 127.87 72.3719C128.236 71.4871 128.424 70.5389 128.424 69.5814V65.2324H88.4276V76.8717Z" fill="#A11E29"/>
<path d="M79.3539 76.8794H84.849V9.75136e-07H79.3539C78.3973 -0.00049438 77.4499 0.18774 76.5661 0.553939C75.6822 0.920139 74.879 1.45712 74.2026 2.13419C73.5262 2.81126 72.9897 3.61514 72.6238 4.49987C72.258 5.3846 72.0699 6.33283 72.0704 7.29035V69.7078C72.0713 70.6593 72.2612 71.6013 72.629 72.4787C72.9968 73.3562 73.5352 74.1517 74.213 74.819C74.8907 75.4864 75.6942 76.0122 76.5768 76.3659C77.4593 76.7196 78.4033 76.8941 79.3539 76.8794Z" fill="#A11E29"/>
<path d="M158.836 4.349C153.229 7.38033 148.648 12.0097 145.673 17.6503C142.495 23.9033 140.915 30.8474 141.074 37.8613C141.064 44.6667 142.408 51.406 145.027 57.686C147.457 63.5488 151.6 68.5404 156.912 72.0067C161.533 74.7712 166.746 76.3938 172.119 76.74L173.653 76.8681V65.8714L172.375 65.6151C169.556 65.1224 166.837 64.1721 164.325 62.8019C160.666 60.6641 157.864 57.3175 156.402 53.337C154.515 48.4008 153.604 43.145 153.719 37.8613C153.703 33.327 154.482 28.8251 156.019 24.56C157.372 20.4994 160.017 16.9946 163.55 14.5826C166.207 12.8351 169.219 11.6992 172.367 11.2568L173.646 11.1287V0.128174L171.985 0.384438C167.386 0.838688 162.92 2.18529 158.836 4.349Z" fill="#A11E29"/>
<path d="M189.506 61.6504C186.513 64.1399 182.787 65.5776 178.9 65.7431L177.621 65.8712V76.8717H179.156C185.897 76.7899 192.435 74.5486 197.811 70.4764C203.68 65.7948 207.78 59.2518 209.436 51.9255C209.37 51.5287 209.19 51.1599 208.918 50.8645C208.645 50.5691 208.292 50.3602 207.902 50.2636L200.874 48.4735C199.976 48.2346 199.021 48.3546 198.21 48.8083C197.399 49.262 196.796 50.0136 196.529 50.9042C195.191 55.051 192.766 58.7621 189.506 61.6504Z" fill="#A11E29"/>
<path d="M276.909 41.9539C274.816 39.2304 272.039 37.1119 268.86 35.8148C271.132 34.3305 273.051 32.3655 274.483 30.0583C276.279 27.1312 277.25 23.7721 277.293 20.3372C277.285 16.6209 276.222 12.9834 274.227 9.84918C272.196 6.5109 269.151 3.91116 265.537 2.43069C261.018 0.681181 256.195 -0.145303 251.352 -5.36311e-05H238.574V11.6393H248.286C251.936 11.4984 255.588 11.8424 259.148 12.6624C260.888 13.1959 262.383 14.3312 263.365 15.8657C264.407 17.6017 264.939 19.5971 264.899 21.6223C264.996 23.6322 264.411 25.616 263.238 27.2507C262.016 28.8241 260.31 29.95 258.383 30.454C255.445 31.0806 252.44 31.3383 249.438 31.2209H238.574V42.8489H250.586C254.075 42.7206 257.564 43.1085 260.94 44.0002C263.014 44.6224 264.816 45.9304 266.051 47.7104C267.366 49.5778 268.038 51.8223 267.967 54.1057C268.03 56.0196 267.589 57.9163 266.689 59.606C265.937 61.0476 264.837 62.2782 263.489 63.1861C261.916 64.106 260.181 64.7138 258.378 64.9762C256.264 65.296 254.125 65.4221 251.989 65.3531H238.7V76.9924H251.989C256.115 77.0935 260.238 76.6635 264.255 75.713C267.351 74.9975 270.265 73.6504 272.817 71.7559C275.328 69.7765 277.341 67.2358 278.694 64.3375C280.236 61.1023 281.023 57.5583 280.994 53.9738C280.89 49.6437 279.465 45.4492 276.909 41.9539Z" fill="#A11E29"/>
</g>
<defs>
<clipPath id="clip0_60_90">
<rect width="281" height="77" fill="white"/>
</clipPath>
</defs>
</svg>
